<?xml version="1.0" standalone="no"?>
<!DOCTYPE svg PUBLIC "-//W3C//DTD SVG 20010904//EN"
 "http://www.w3.org/TR/2001/REC-SVG-20010904/DTD/svg10.dtd">
<svg version="1.0" xmlns="http://www.w3.org/2000/svg"
 width="360.000000pt" height="240.000000pt" viewBox="0 0 360.000000 240.000000"
 preserveAspectRatio="xMidYMid meet">

<g transform="translate(0.000000,240.000000) scale(0.100000,-0.100000)"
fill="#000000" stroke="none">
<path d="M160 2360 c-6 -22 -18 -48 -28 -57 -9 -10 -24 -34 -33 -53 -37 -80
-42 -89 -51 -84 -22 14 -48 -29 -48 -77 l0 -49 28 13 c15 6 30 16 34 21 4 6
16 6 31 -1 20 -10 25 -21 31 -72 7 -64 -2 -93 -50 -157 -13 -17 -24 -36 -24
-43 0 -7 -11 -23 -25 -37 l-25 -25 0 -327 c0 -267 3 -323 13 -302 12 23 17 24
112 26 207 5 257 30 296 147 l21 65 -30 31 c-16 18 -32 46 -35 64 -2 18 -11
47 -18 64 -11 27 -11 41 0 80 21 76 21 75 -46 95 -50 15 -69 27 -98 62 -40 50
-43 64 -15 96 11 13 20 28 20 35 0 16 33 45 52 45 23 0 48 44 48 82 0 19 -11
49 -25 70 -15 22 -21 39 -15 43 6 4 8 10 5 15 -2 4 4 34 16 66 11 33 24 84 28
114 4 30 12 63 16 73 6 15 -1 17 -84 17 l-90 0 -11 -40z"/>
<path d="M590 2395 c0 -4 7 -19 15 -34 14 -28 33 -41 59 -41 15 0 86 59 86 71
0 5 -36 9 -80 9 -44 0 -80 -2 -80 -5z"/>
<path d="M1735 2390 c-3 -5 -20 -10 -36 -10 -31 0 -93 -22 -117 -42 -7 -7 -37
-20 -65 -30 -28 -10 -55 -22 -59 -26 -15 -15 1 -37 40 -54 20 -9 47 -26 60
-38 25 -24 19 -45 -23 -78 -14 -11 -25 -22 -25 -25 0 -14 143 -59 170 -53 43
8 100 48 100 69 0 27 13 18 59 -40 43 -55 55 -58 95 -24 24 20 46 72 46 107 0
15 -10 46 -22 70 l-21 43 24 21 c13 11 36 23 50 26 33 7 89 57 89 78 0 14 -24
16 -179 16 -109 0 -182 -4 -186 -10z m32 -114 c9 -9 13 -38 6 -48 -2 -5 -16
-2 -29 6 -13 9 -41 16 -62 16 -50 0 -60 11 -25 26 28 12 98 12 110 0z"/>
<path d="M3360 2375 c0 -14 -8 -29 -20 -35 -14 -7 -20 -20 -19 -43 1 -62 25
-81 42 -35 3 10 18 20 32 24 56 14 132 -46 163 -129 11 -29 24 -52 28 -52 5 0
10 39 12 87 l3 86 -29 7 c-16 3 -42 19 -57 35 -16 17 -34 30 -41 30 -7 0 -26
11 -42 25 -40 33 -72 33 -72 0z"/>
<path d="M991 2291 c-12 -7 -7 -13 22 -27 20 -9 34 -21 31 -26 -3 -4 -33 -8
-67 -8 -53 0 -181 -33 -217 -55 -19 -12 4 -45 39 -56 20 -6 47 -18 60 -26 14
-9 43 -16 65 -16 64 -1 136 6 136 12 0 8 74 31 99 31 33 0 45 25 25 55 -14 21
-15 33 -7 59 6 19 7 39 4 45 -9 14 -172 25 -190 12z"/>
<path d="M632 2264 c-19 -13 -28 -13 -58 -4 -20 7 -40 8 -44 4 -5 -5 -11 -58
-13 -119 -2 -60 -7 -122 -11 -136 -6 -19 -4 -28 8 -32 25 -10 46 3 46 27 0 34
23 70 49 76 18 4 27 17 36 47 7 23 22 54 34 69 11 15 21 40 21 55 0 23 -4 29
-23 29 -12 0 -33 -7 -45 -16z"/>
<path d="M2833 2178 c-46 -18 -54 -25 -63 -56 -12 -45 5 -76 55 -96 31 -13 41
-13 85 0 27 8 56 24 65 37 23 33 19 89 -8 115 -28 27 -64 27 -134 0z"/>
<path d="M3537 2037 c-16 -18 -48 -58 -73 -90 -25 -31 -58 -64 -75 -72 -16 -9
-29 -19 -30 -23 0 -4 -2 -25 -3 -47 -2 -22 -9 -70 -15 -107 l-12 -67 32 -55
c33 -55 61 -72 96 -59 23 8 50 39 59 66 9 30 56 87 72 87 9 0 12 40 12 166 0
163 -10 226 -31 193 -7 -12 -9 -11 -9 2 0 8 5 20 12 27 7 7 8 12 3 11 -6 0
-23 -15 -38 -32z"/>
<path d="M525 1871 c-6 -10 25 -31 44 -31 17 0 13 27 -5 34 -22 8 -32 8 -39
-3z"/>
<path d="M3012 1340 c0 -14 2 -19 5 -12 2 6 2 18 0 25 -3 6 -5 1 -5 -13z"/>
<path d="M1 853 c-1 -106 1 -193 4 -193 3 0 16 9 28 21 12 12 49 39 82 61 116
79 144 117 125 174 -6 19 -15 34 -18 34 -4 1 -43 3 -87 6 -94 7 -105 12 -121
56 -11 28 -13 3 -13 -159z"/>
<path d="M1505 798 c-9 -50 -2 -174 10 -168 6 3 9 14 8 25 -2 11 -4 55 -5 97
-2 43 -4 78 -5 78 -1 0 -5 -15 -8 -32z"/>
<path d="M1960 738 c-25 -44 -65 -108 -90 -142 -24 -34 -82 -121 -127 -195
-46 -73 -112 -164 -146 -202 -67 -75 -116 -149 -98 -149 6 0 11 4 11 10 0 5
30 42 66 82 36 40 91 113 121 163 31 50 81 124 112 165 97 129 205 310 199
335 -2 8 -23 -22 -48 -67z"/>
<path d="M1442 793 c-1 -7 -15 -28 -32 -46 -16 -19 -30 -40 -30 -47 0 -13 -64
-173 -136 -336 -24 -56 -44 -106 -44 -110 0 -10 102 101 160 175 24 30 38 51
31 47 -17 -11 -13 9 13 73 29 67 49 173 43 222 -2 19 -5 29 -5 22z"/>
<path d="M2113 568 c-132 -339 -174 -432 -222 -493 -28 -36 -51 -67 -51 -70 0
-3 9 -5 20 -5 40 0 99 101 180 310 29 74 56 140 60 145 4 6 13 32 19 60 7 27
17 55 23 62 6 7 6 18 0 28 -7 13 -13 5 -29 -37z"/>
<path d="M2900 287 c0 -7 7 -23 16 -35 8 -12 13 -30 10 -40 -3 -9 -2 -23 3
-31 7 -11 11 -10 18 5 11 22 11 84 0 102 -11 16 -47 16 -47 -1z"/>
<path d="M3185 160 c13 -24 20 -29 28 -21 14 14 -2 44 -27 49 -16 4 -16 2 -1
-28z"/>
</g>
</svg>
